<svg xmlns="http://www.w3.org/2000/svg" width="1437.09" height="384.243" viewBox="0 0 1437.09 384.243"><g transform="translate(0 -0.278)" opacity="0.5"><path d="M631.065,258.093a1.548,1.548,0,1,1,0-3.093,1.546,1.546,0,1,1,0,3.093Z" fill="#fff"/><path d="M931.063,250.129a1.566,1.566,0,1,1,0-3.129,1.565,1.565,0,0,1,0,3.129Z" fill="#fff"/><path d="M391.985,353.093a1.546,1.546,0,1,1,1.549-1.546A1.528,1.528,0,0,1,391.985,353.093Z" fill="#fff"/><path d="M900.987,36.089a1.549,1.549,0,0,1-1.549-1.543A1.578,1.578,0,0,1,900.987,33a1.544,1.544,0,0,1,1.569,1.547A1.518,1.518,0,0,1,900.987,36.089Z" fill="#fff"/><path d="M1198.98,361.091a1.546,1.546,0,0,1,0-3.091,1.546,1.546,0,1,1,0,3.091Z" fill="#fff"/><path d="M421.987,3.409a1.588,1.588,0,0,1-1.549-1.587A1.58,1.58,0,0,1,421.987.278a1.6,1.6,0,0,1,1.631,1.545A1.608,1.608,0,0,1,421.987,3.409Z" fill="#fff"/><path d="M540.991,12.093a1.547,1.547,0,1,1,0-3.093,1.547,1.547,0,0,1,0,3.093Z" fill="#fff"/><path d="M211.983,84.129a1.565,1.565,0,0,1,0-3.129,1.565,1.565,0,0,1,0,3.129Z" fill="#fff"/><path d="M301.987,313.129a1.565,1.565,0,0,1,0-3.129,1.565,1.565,0,0,1,0,3.129Z" fill="#fff"/><path d="M181.985,369.093a1.546,1.546,0,1,1,0-3.093,1.547,1.547,0,1,1,0,3.093Z" fill="#fff"/><path d="M332.005,20.093a1.547,1.547,0,1,1,0-3.093,1.547,1.547,0,1,1,0,3.093Z" fill="#fff"/><path d="M1.551,100.093a1.547,1.547,0,1,1,0-3.093,1.547,1.547,0,1,1,0,3.093Z" fill="#fff"/><path d="M840.987,132.091a1.546,1.546,0,1,1,1.549-1.546A1.526,1.526,0,0,1,840.987,132.091Z" fill="#fff"/><path d="M690.989,28.093a1.547,1.547,0,1,1,0-3.093,1.547,1.547,0,1,1,0,3.093Z" fill="#fff"/><path d="M601.069,337.093a1.549,1.549,0,1,1,0-3.093,1.546,1.546,0,1,1,0,3.093Z" fill="#fff"/><path d="M451.155,304.375a.7.7,0,0,1-.717-.685.676.676,0,0,1,.717-.69.66.66,0,0,1,.658.69A.684.684,0,0,1,451.155,304.375Z" fill="#fff"/><path d="M31.705,59.523a1.262,1.262,0,1,1,0-2.523,1.262,1.262,0,0,1,0,2.523Z" fill="#fff"/><path d="M750.638,115.483a1.227,1.227,0,0,1-1.2-1.257,1.2,1.2,0,0,1,1.2-1.226,1.214,1.214,0,0,1,1.251,1.226A1.239,1.239,0,0,1,750.638,115.483Z" fill="#fff"/><path d="M480.7,155.527a1.263,1.263,0,0,1,0-2.527,1.263,1.263,0,0,1,0,2.527Z" fill="#fff"/><path d="M570.7,75.511a1.256,1.256,0,1,1,0-2.511,1.256,1.256,0,1,1,0,2.511Z" fill="#fff"/><path d="M271.7,289.485a1.294,1.294,0,0,1-1.264-1.259A1.263,1.263,0,0,1,271.7,287a1.213,1.213,0,0,1,1.263,1.226A1.242,1.242,0,0,1,271.7,289.485Z" fill="#fff"/><path d="M361.7,219.487a1.288,1.288,0,0,1-1.26-1.253A1.27,1.27,0,0,1,361.7,217a1.221,1.221,0,0,1,1.263,1.234A1.241,1.241,0,0,1,361.7,219.487Z" fill="#fff"/><path d="M151.7,273.485a1.215,1.215,0,0,1-1.266-1.223A1.243,1.243,0,0,1,151.7,271a1.293,1.293,0,0,1,1.263,1.262A1.263,1.263,0,0,1,151.7,273.485Z" fill="#fff"/><path d="M241.7,139.483a1.292,1.292,0,0,1-1.265-1.261A1.26,1.26,0,0,1,241.7,137a1.209,1.209,0,0,1,1.264,1.222A1.24,1.24,0,0,1,241.7,139.483Z" fill="#fff"/><path d="M1018.7,384.521a1.26,1.26,0,0,1,0-2.521,1.261,1.261,0,1,1,0,2.521Z" fill="#fff"/><path d="M810.7,328.5a1.274,1.274,0,0,1-1.264-1.239A1.3,1.3,0,0,1,810.7,326a1.242,1.242,0,0,1,1.263,1.264A1.223,1.223,0,0,1,810.7,328.5Z" fill="#fff"/><path d="M660.7,227.515a1.258,1.258,0,1,1,0-2.515,1.26,1.26,0,0,1,0,2.515Z" fill="#fff"/><path d="M780.7,187.523a1.261,1.261,0,0,1,0-2.523,1.264,1.264,0,0,1,0,2.523Z" fill="#fff"/><path d="M870.7,123.483a1.294,1.294,0,0,1-1.265-1.257A1.268,1.268,0,0,1,870.7,121a1.214,1.214,0,0,1,1.262,1.226A1.239,1.239,0,0,1,870.7,123.483Z" fill="#fff"/><path d="M720.7,344.483a1.259,1.259,0,0,1-1.264-1.223A1.293,1.293,0,0,1,720.7,342a1.245,1.245,0,0,1,1.265,1.26A1.213,1.213,0,0,1,720.7,344.483Z" fill="#fff"/><path d="M1138.7,195.483a1.261,1.261,0,0,1-1.26-1.223,1.292,1.292,0,0,1,1.26-1.26,1.242,1.242,0,0,1,1.27,1.26A1.214,1.214,0,0,1,1138.7,195.483Z" fill="#fff"/><path d="M1168.62,163.525a1.262,1.262,0,1,1,1.26-1.263A1.226,1.226,0,0,1,1168.62,163.525Z" fill="#fff"/><path d="M990.043,234.086a.572.572,0,0,1-.605-.564.565.565,0,0,1,.605-.522.525.525,0,0,1,.525.522A.537.537,0,0,1,990.043,234.086Z" fill="#fff"/><path d="M960.765,241.645a1.323,1.323,0,1,1,0-2.645,1.323,1.323,0,1,1,0,2.645Z" fill="#fff"/><path d="M91.987,44.089a1.551,1.551,0,0,1-1.549-1.543A1.58,1.58,0,0,1,91.987,41a1.536,1.536,0,0,1,1.557,1.547A1.51,1.51,0,0,1,91.987,44.089Z" fill="#fff"/><path d="M61.7,203.483a1.213,1.213,0,0,1-1.264-1.223A1.242,1.242,0,0,1,61.7,201a1.227,1.227,0,0,1,1.188,1.26A1.2,1.2,0,0,1,61.7,203.483Z" fill="#fff"/><path d="M121.7,171.525a1.262,1.262,0,1,1,0-2.525,1.262,1.262,0,1,1,0,2.525Z" fill="#fff"/><path d="M510.987,266.093a1.546,1.546,0,1,1,0-3.093,1.547,1.547,0,1,1,0,3.093Z" fill="#fff"/><path d="M1229.07,92.129a1.566,1.566,0,1,0-1.63-1.583A1.6,1.6,0,0,0,1229.07,92.129Z" fill="#fff"/><path d="M1048.99,321.129a1.565,1.565,0,0,0,0-3.129,1.565,1.565,0,0,0,0,3.129Z" fill="#fff"/><path d="M1258.99,377.093a1.546,1.546,0,1,0,0-3.093,1.546,1.546,0,1,0,0,3.093Z" fill="#fff"/><path d="M1435.55,108.093a1.547,1.547,0,1,0-1.55-1.546A1.52,1.52,0,0,0,1435.55,108.093Z" fill="#fff"/><path d="M1408.7,67.523a1.262,1.262,0,0,0,0-2.523,1.262,1.262,0,0,0,0,2.523Z" fill="#fff"/><path d="M1078.7,297.485a1.233,1.233,0,0,0,1.19-1.259,1.225,1.225,0,1,0-2.45,0A1.241,1.241,0,0,0,1078.7,297.485Z" fill="#fff"/><path d="M1288.7,281.485a1.256,1.256,0,0,0,1.26-1.223,1.26,1.26,0,1,0-2.52,0A1.256,1.256,0,0,0,1288.7,281.485Z" fill="#fff"/><path d="M1108.62,147.483a1.242,1.242,0,0,0,1.27-1.261,1.212,1.212,0,0,0-1.27-1.222,1.191,1.191,0,0,0-1.18,1.222A1.225,1.225,0,0,0,1108.62,147.483Z" fill="#fff"/><path d="M1348.99,52.089a1.562,1.562,0,0,0,1.62-1.543,1.585,1.585,0,0,0-3.17,0A1.545,1.545,0,0,0,1348.99,52.089Z" fill="#fff"/><path d="M1378.7,211.483a1.22,1.22,0,0,0,1.27-1.223,1.248,1.248,0,0,0-1.27-1.26,1.292,1.292,0,0,0-1.26,1.26A1.261,1.261,0,0,0,1378.7,211.483Z" fill="#fff"/><path d="M1318.7,179.525a1.262,1.262,0,0,0,0-2.525,1.262,1.262,0,0,0,0,2.525Z" fill="#fff"/></g></svg>