<svg width="1433" height="93" viewBox="0 0 1433 93" fill="none" xmlns="http://www.w3.org/2000/svg">
<g opacity="0.5">
<path d="M638.627 15.0933C637.739 15.0933 637 14.3997 637 13.5466C637 12.6956 637.739 12 638.627 12C639.437 12 640.174 12.6956 640.174 13.5466C640.174 14.3977 639.435 15.0933 638.627 15.0933Z" fill="white"/>
<path d="M1122.62 13.1292C1121.73 13.1292 1121 12.4316 1121 11.5447C1121 10.6916 1121.73 10 1122.62 10C1123.43 10 1124.17 10.6936 1124.17 11.5447C1124.17 12.4316 1123.43 13.1292 1122.62 13.1292Z" fill="white"/>
<path d="M1122.62 14.1292C1121.73 14.1292 1121 13.4316 1121 12.5447C1121 11.6916 1121.73 11 1122.62 11C1123.43 11 1124.17 11.6936 1124.17 12.5447C1124.17 13.4316 1123.43 14.1292 1122.62 14.1292Z" stroke="white" stroke-width="0.02658" stroke-miterlimit="10"/>
<path d="M471.714 62.0932C470.828 62.0932 470.167 61.3976 470.167 60.5466C470.167 59.6976 470.828 59 471.714 59C472.605 59 473.263 59.6976 473.263 60.5466C473.263 61.3976 472.605 62.0932 471.714 62.0932Z" fill="white"/>
<path d="M471.714 63.0932C470.828 63.0932 470.167 62.3976 470.167 61.5466C470.167 60.6976 470.828 60 471.714 60C472.605 60 473.263 60.6976 473.263 61.5466C473.263 62.3976 472.605 63.0932 471.714 63.0932Z" stroke="white" stroke-width="0.02658" stroke-miterlimit="10"/>
<path d="M1027.32 40.0893C1026.5 40.0893 1025.77 39.4356 1025.77 38.5466C1025.77 37.6956 1026.5 37 1027.32 37C1028.21 37 1028.88 37.6956 1028.88 38.5466C1028.88 39.4356 1028.21 40.0893 1027.32 40.0893Z" fill="white"/>
<path d="M1027.32 41.0893C1026.5 41.0893 1025.77 40.4356 1025.77 39.5466C1025.77 38.6956 1026.5 38 1027.32 38C1028.21 38 1028.88 38.6956 1028.88 39.5466C1028.88 40.4356 1028.21 41.0893 1027.32 41.0893Z" stroke="white" stroke-width="0.02658" stroke-miterlimit="10"/>
<path d="M1209.64 64.0913C1208.76 64.0913 1208.1 63.3937 1208.1 62.5426C1208.1 61.6936 1208.76 61 1209.64 61C1210.46 61 1211.19 61.6956 1211.19 62.5426C1211.19 63.3937 1210.46 64.0913 1209.64 64.0913Z" fill="white"/>
<path d="M1209.64 65.0913C1208.76 65.0913 1208.1 64.3937 1208.1 63.5426C1208.1 62.6936 1208.76 62 1209.64 62C1210.46 62 1211.19 62.6956 1211.19 63.5426C1211.19 64.3937 1210.46 65.0913 1209.64 65.0913Z" stroke="white" stroke-width="0.02658" stroke-miterlimit="10"/>
<path d="M480.902 7.13123C480.092 7.13123 479.354 6.43559 479.354 5.54467C479.354 4.6956 480.092 4 480.902 4C481.791 4 482.533 4.6956 482.533 5.54467C482.533 6.43559 481.791 7.13123 480.902 7.13123Z" fill="white"/>
<path d="M480.902 8.13123C480.092 8.13123 479.354 7.43559 479.354 6.54467C479.354 5.6956 480.092 5 480.902 5C481.791 5 482.533 5.6956 482.533 6.54467C482.533 7.43559 481.791 8.13123 480.902 8.13123Z" stroke="white" stroke-width="0.02658" stroke-miterlimit="10"/>
<path d="M581.613 9.09329C580.796 9.09329 580.06 8.3977 580.06 7.54664C580.06 6.69759 580.796 6 581.613 6C582.499 6 583.157 6.69759 583.157 7.54664C583.157 8.3977 582.499 9.09329 581.613 9.09329Z" fill="white"/>
<path d="M581.613 10.0933C580.796 10.0933 580.06 9.3977 580.06 8.54664C580.06 7.69759 580.796 7 581.613 7C582.499 7 583.157 7.69759 583.157 8.54664C583.157 9.3977 582.499 10.0933 581.613 10.0933Z" stroke="white" stroke-width="0.02658" stroke-miterlimit="10"/>
<path d="M182.193 88.1292C181.387 88.1292 180.648 87.4355 180.648 86.5466C180.648 85.6975 181.387 85 182.193 85C183.087 85 183.746 85.6955 183.746 86.5466C183.746 87.4355 183.087 88.1292 182.193 88.1292Z" fill="white"/>
<path d="M182.193 89.1292C181.387 89.1292 180.648 88.4355 180.648 87.5466C180.648 86.6975 181.387 86 182.193 86C183.087 86 183.746 86.6955 183.746 87.5466C183.746 88.4355 183.087 89.1292 182.193 89.1292Z" stroke="white" stroke-width="0.02658" stroke-miterlimit="10"/>
<path d="M268.551 50.1291C267.737 50.1291 267.002 49.4355 267.002 48.5466C267.002 47.6956 267.737 47 268.551 47C269.439 47 270.098 47.6956 270.098 48.5466C270.098 49.4355 269.439 50.1291 268.551 50.1291Z" fill="white"/>
<path d="M268.551 51.1291C267.737 51.1291 267.002 50.4355 267.002 49.5466C267.002 48.6956 267.737 48 268.551 48C269.439 48 270.098 48.6956 270.098 49.5466C270.098 50.4355 269.439 51.1291 268.551 51.1291Z" stroke="white" stroke-width="0.02658" stroke-miterlimit="10"/>
<path d="M89.0675 80.0933C88.1792 80.0933 87.5205 79.3997 87.5205 78.5466C87.5205 77.6956 88.1792 77 89.0675 77C89.8799 77 90.6204 77.6956 90.6204 78.5466C90.6204 79.3977 89.8819 80.0933 89.0675 80.0933Z" fill="white"/>
<path d="M89.0675 81.0933C88.1792 81.0933 87.5205 80.3997 87.5205 79.5466C87.5205 78.6956 88.1792 78 89.0675 78C89.8799 78 90.6204 78.6956 90.6204 79.5466C90.6204 80.3977 89.8819 81.0933 89.0675 81.0933Z" stroke="white" stroke-width="0.02658" stroke-miterlimit="10"/>
<path d="M334.065 30.0933C333.173 30.0933 332.499 29.3957 332.499 28.5467C332.499 27.6996 333.171 27 334.065 27C334.876 27 335.614 27.6996 335.614 28.5467C335.614 29.3977 334.876 30.0933 334.065 30.0933Z" fill="white"/>
<path d="M334.065 31.0933C333.173 31.0933 332.499 30.3957 332.499 29.5467C332.499 28.6996 333.171 28 334.065 28C334.876 28 335.614 28.6996 335.614 29.5467C335.614 30.3977 334.876 31.0933 334.065 31.0933Z" stroke="white" stroke-width="0.02658" stroke-miterlimit="10"/>
<path d="M2.55096 11.0933C1.65871 11.0933 1 10.3977 1 9.54664C1 8.69759 1.65871 8 2.55096 8C3.44121 8 4.09991 8.69759 4.09991 9.54664C4.09991 10.3957 3.44121 11.0933 2.55096 11.0933Z" fill="white"/>
<path d="M2.55096 12.0933C1.65871 12.0933 1 11.3977 1 10.5466C1 9.69759 1.65871 9 2.55096 9C3.44121 9 4.09991 9.69759 4.09991 10.5466C4.09991 11.3957 3.44121 12.0933 2.55096 12.0933Z" stroke="white" stroke-width="0.02658" stroke-miterlimit="10"/>
<path d="M905.655 20.0913C904.763 20.0913 904.106 19.3957 904.106 18.5447C904.106 17.6936 904.763 17 905.655 17C906.545 17 907.204 17.6936 907.204 18.5447C907.204 19.3957 906.545 20.0913 905.655 20.0913Z" fill="white"/>
<path d="M905.655 21.0913C904.763 21.0913 904.106 20.3957 904.106 19.5447C904.106 18.6936 904.763 18 905.655 18C906.545 18 907.204 18.6936 907.204 19.5447C907.204 20.3957 906.545 21.0913 905.655 21.0913Z" stroke="white" stroke-width="0.02658" stroke-miterlimit="10"/>
<path d="M695.571 32.0933C694.759 32.0933 694.02 31.3957 694.02 30.5466C694.02 29.6976 694.759 29 695.571 29C696.461 29 697.12 29.6956 697.12 30.5466C697.12 31.3957 696.461 32.0933 695.571 32.0933Z" fill="white"/>
<path d="M695.571 33.0933C694.759 33.0933 694.02 32.3957 694.02 31.5466C694.02 30.6976 694.759 30 695.571 30C696.461 30 697.12 30.6956 697.12 31.5466C697.12 32.3957 696.461 33.0933 695.571 33.0933Z" stroke="white" stroke-width="0.02658" stroke-miterlimit="10"/>
<path d="M586.344 56.0933C585.452 56.0933 584.713 55.3957 584.713 54.5446C584.713 53.6956 585.452 53 586.344 53C587.152 53 587.893 53.6976 587.893 54.5446C587.893 55.3957 587.15 56.0933 586.344 56.0933Z" fill="white"/>
<path d="M586.344 57.0933C585.452 57.0933 584.713 56.3957 584.713 55.5446C584.713 54.6956 585.452 54 586.344 54C587.152 54 587.893 54.6976 587.893 55.5446C587.893 56.3957 587.15 57.0933 586.344 57.0933Z" stroke="white" stroke-width="0.02658" stroke-miterlimit="10"/>
<path d="M514.207 28.3752C513.782 28.3752 513.491 28.0424 513.491 27.6896C513.491 27.291 513.784 27 514.207 27C514.577 27 514.866 27.291 514.866 27.6896C514.866 28.0444 514.577 28.3752 514.207 28.3752Z" fill="white"/>
<path d="M514.207 28.3752C513.782 28.3752 513.491 28.0424 513.491 27.6896C513.491 27.291 513.784 27 514.207 27C514.577 27 514.866 27.291 514.866 27.6896C514.866 28.0444 514.577 28.3752 514.207 28.3752Z" stroke="white" stroke-width="0.02658" stroke-miterlimit="10"/>
<path d="M12.8139 45.5232C12.0793 45.5232 11.5464 44.9532 11.5464 44.2636C11.5464 43.566 12.0793 43 12.8139 43C13.4686 43 14.0754 43.566 14.0754 44.2636C14.0754 44.9532 13.4686 45.5232 12.8139 45.5232Z" fill="white"/>
<path d="M12.8139 46.5232C12.0793 46.5232 11.5464 45.9532 11.5464 45.2636C11.5464 44.566 12.0793 44 12.8139 44C13.4686 44 14.0754 44.566 14.0754 45.2636C14.0754 45.9532 13.4686 46.5232 12.8139 46.5232Z" stroke="white" stroke-width="0.02658" stroke-miterlimit="10"/>
<path d="M776.603 15.4834C775.934 15.4834 775.403 14.9174 775.403 14.2258C775.403 13.5362 775.934 13 776.603 13C777.322 13 777.854 13.5362 777.854 14.2258C777.854 14.9174 777.322 15.4834 776.603 15.4834Z" fill="white"/>
<path d="M776.603 16.4834C775.934 16.4834 775.403 15.9174 775.403 15.2258C775.403 14.5362 775.934 14 776.603 14C777.322 14 777.854 14.5362 777.854 15.2258C777.854 15.9174 777.322 16.4834 776.603 16.4834Z" stroke="white" stroke-width="0.02658" stroke-miterlimit="10"/>
<path d="M548.256 37.5272C547.601 37.5272 546.994 36.9572 546.994 36.2636C546.994 35.572 547.603 35 548.256 35C548.988 35 549.519 35.572 549.519 36.2636C549.519 36.9572 548.99 37.5272 548.256 37.5272Z" fill="white"/>
<path d="M548.256 38.5272C547.601 38.5272 546.994 37.9572 546.994 37.2636C546.994 36.572 547.603 36 548.256 36C548.988 36 549.519 36.572 549.519 37.2636C549.519 37.9572 548.99 38.5272 548.256 38.5272Z" stroke="white" stroke-width="0.02658" stroke-miterlimit="10"/>
<path d="M581.615 59.5113C580.96 59.5113 580.352 58.9433 580.352 58.2477C580.352 57.5541 580.962 57 581.615 57C582.348 57 582.881 57.5541 582.881 58.2477C582.881 58.9433 582.348 59.5113 581.615 59.5113Z" fill="white"/>
<path d="M581.615 60.5113C580.96 60.5113 580.352 59.9433 580.352 59.2477C580.352 58.5541 580.962 58 581.615 58C582.348 58 582.881 58.5541 582.881 59.2477C582.881 59.9433 582.348 60.5113 581.615 60.5113Z" stroke="white" stroke-width="0.02658" stroke-miterlimit="10"/>
<path d="M262.807 25.4854C262.155 25.4854 261.544 24.9174 261.544 24.2258C261.544 23.5322 262.155 23 262.807 23C263.54 23 264.071 23.5322 264.071 24.2258C264.071 24.9174 263.54 25.4854 262.807 25.4854Z" fill="white"/>
<path d="M262.807 26.4854C262.155 26.4854 261.544 25.9174 261.544 25.2258C261.544 24.5322 262.155 24 262.807 24C263.54 24 264.071 24.5322 264.071 25.2258C264.071 25.9174 263.54 26.4854 262.807 26.4854Z" stroke="white" stroke-width="0.02658" stroke-miterlimit="10"/>
<path d="M385.341 83.4874C384.686 83.4874 384.082 82.9194 384.082 82.2337C384.082 81.5441 384.688 81 385.341 81C386.074 81 386.605 81.5421 386.605 82.2337C386.605 82.9194 386.074 83.4874 385.341 83.4874Z" fill="white"/>
<path d="M385.341 84.4874C384.686 84.4874 384.082 83.9194 384.082 83.2337C384.082 82.5441 384.688 82 385.341 82C386.074 82 386.605 82.5421 386.605 83.2337C386.605 83.9194 386.074 84.4874 385.341 84.4874Z" stroke="white" stroke-width="0.02658" stroke-miterlimit="10"/>
<path d="M54.6491 21.4854C53.9145 21.4854 53.3835 20.9512 53.3835 20.2616C53.3835 19.568 53.9145 19 54.6491 19C55.3038 19 55.9126 19.568 55.9126 20.2616C55.9126 20.9512 55.3038 21.4854 54.6491 21.4854Z" fill="white"/>
<path d="M54.6491 22.4854C53.9145 22.4854 53.3835 21.9512 53.3835 21.2616C53.3835 20.568 53.9145 20 54.6491 20C55.3038 20 55.9126 20.568 55.9126 21.2616C55.9126 21.9512 55.3038 22.4854 54.6491 22.4854Z" stroke="white" stroke-width="0.02658" stroke-miterlimit="10"/>
<path d="M261.542 33.4834C260.886 33.4834 260.277 32.9174 260.277 32.2218C260.277 31.5282 260.888 31 261.542 31C262.277 31 262.806 31.5282 262.806 32.2218C262.806 32.9174 262.277 33.4834 261.542 33.4834Z" fill="white"/>
<path d="M261.542 34.4834C260.886 34.4834 260.277 33.9174 260.277 33.2218C260.277 32.5282 260.888 32 261.542 32C262.277 32 262.806 32.5282 262.806 33.2218C262.806 33.9174 262.277 34.4834 261.542 34.4834Z" stroke="white" stroke-width="0.02658" stroke-miterlimit="10"/>
<path d="M1151.88 85.5213C1151.15 85.5213 1150.62 84.9533 1150.62 84.2617C1150.62 83.5681 1151.15 83 1151.88 83C1152.54 83 1153.15 83.5681 1153.15 84.2617C1153.15 84.9553 1152.54 85.5213 1151.88 85.5213Z" fill="white"/>
<path d="M1151.88 86.5213C1151.15 86.5213 1150.62 85.9533 1150.62 85.2617C1150.62 84.5681 1151.15 84 1151.88 84C1152.54 84 1153.15 84.5681 1153.15 85.2617C1153.15 85.9553 1152.54 86.5213 1151.88 86.5213Z" stroke="white" stroke-width="0.02658" stroke-miterlimit="10"/>
<path d="M846.72 53.5034C846.065 53.5034 845.457 52.9573 845.457 52.2637C845.457 51.5701 846.065 51 846.72 51C847.455 51 847.984 51.5681 847.984 52.2637C847.984 52.9573 847.455 53.5034 846.72 53.5034Z" fill="white"/>
<path d="M846.72 54.5034C846.065 54.5034 845.457 53.9573 845.457 53.2637C845.457 52.5701 846.065 52 846.72 52C847.455 52 847.984 52.5681 847.984 53.2637C847.984 53.9573 847.455 54.5034 846.72 54.5034Z" stroke="white" stroke-width="0.02658" stroke-miterlimit="10"/>
<path d="M677.226 85.5153C676.496 85.5153 675.965 84.9473 675.965 84.2537C675.965 83.5601 676.496 83 677.226 83C677.885 83 678.412 83.5601 678.412 84.2537C678.412 84.9473 677.885 85.5153 677.226 85.5153Z" fill="white"/>
<path d="M677.226 86.5153C676.496 86.5153 675.965 85.9473 675.965 85.2537C675.965 84.5601 676.496 84 677.226 84C677.885 84 678.412 84.5601 678.412 85.2537C678.412 85.9473 677.885 86.5153 677.226 86.5153Z" stroke="white" stroke-width="0.02658" stroke-miterlimit="10"/>
<path d="M830.174 71.5232C829.439 71.5232 828.912 70.9552 828.912 70.2596C828.912 69.5661 829.439 69 830.174 69C830.832 69 831.363 69.5661 831.363 70.2596C831.363 70.9552 830.832 71.5232 830.174 71.5232Z" fill="white"/>
<path d="M830.174 72.5232C829.439 72.5232 828.912 71.9552 828.912 71.2596C828.912 70.5661 829.439 70 830.174 70C830.832 70 831.363 70.5661 831.363 71.2596C831.363 71.9552 830.832 72.5232 830.174 72.5232Z" stroke="white" stroke-width="0.02658" stroke-miterlimit="10"/>
<path d="M936.462 17.4834C935.81 17.4834 935.197 16.9174 935.197 16.2258C935.197 15.5362 935.81 15 936.462 15C937.195 15 937.724 15.5362 937.724 16.2258C937.724 16.9174 937.195 17.4834 936.462 17.4834Z" fill="white"/>
<path d="M936.462 18.4834C935.81 18.4834 935.197 17.9174 935.197 17.2258C935.197 16.5362 935.81 16 936.462 16C937.195 16 937.724 16.5362 937.724 17.2258C937.724 17.9174 937.195 18.4834 936.462 18.4834Z" stroke="white" stroke-width="0.02658" stroke-miterlimit="10"/>
<path d="M703.909 57.4834C703.255 57.4834 702.646 56.9552 702.646 56.2597C702.646 55.568 703.255 55 703.909 55C704.64 55 705.175 55.568 705.175 56.2597C705.175 56.9552 704.64 57.4834 703.909 57.4834Z" fill="white"/>
<path d="M703.909 58.4834C703.255 58.4834 702.646 57.9552 702.646 57.2597C702.646 56.568 703.255 56 703.909 56C704.64 56 705.175 56.568 705.175 57.2597C705.175 57.9552 704.64 58.4834 703.909 58.4834Z" stroke="white" stroke-width="0.02658" stroke-miterlimit="10"/>
<path d="M1174.15 73.4834C1173.5 73.4834 1172.89 72.9512 1172.89 72.2596C1172.89 71.566 1173.5 71 1174.15 71C1174.89 71 1175.42 71.566 1175.42 72.2596C1175.42 72.9512 1174.89 73.4834 1174.15 73.4834Z" fill="white"/>
<path d="M1174.15 74.4834C1173.5 74.4834 1172.89 73.9512 1172.89 73.2596C1172.89 72.566 1173.5 72 1174.15 72C1174.89 72 1175.42 72.566 1175.42 73.2596C1175.42 73.9512 1174.89 74.4834 1174.15 74.4834Z" stroke="white" stroke-width="0.02658" stroke-miterlimit="10"/>
<path d="M1180.24 65.5252C1179.59 65.5252 1179.05 64.9572 1179.05 64.2616C1179.05 63.57 1179.59 63 1180.24 63C1180.97 63 1181.5 63.57 1181.5 64.2616C1181.5 64.9592 1180.97 65.5252 1180.24 65.5252Z" fill="white"/>
<path d="M1180.24 66.5252C1179.59 66.5252 1179.05 65.9572 1179.05 65.2616C1179.05 64.57 1179.59 64 1180.24 64C1180.97 64 1181.5 64.57 1181.5 65.2616C1181.5 65.9592 1180.97 66.5252 1180.24 66.5252Z" stroke="white" stroke-width="0.02658" stroke-miterlimit="10"/>
<path d="M1127.3 86.0863C1126.96 86.0863 1126.69 85.8511 1126.69 85.5222C1126.69 85.2332 1126.96 85 1127.3 85C1127.58 85 1127.82 85.2332 1127.82 85.5222C1127.82 85.8511 1127.58 86.0863 1127.3 86.0863Z" fill="white"/>
<path d="M1127.3 85.0863C1126.96 85.0863 1126.69 84.8511 1126.69 84.5222C1126.69 84.2332 1126.96 84 1127.3 84C1127.58 84 1127.82 84.2332 1127.82 84.5222C1127.82 84.8511 1127.58 85.0863 1127.3 85.0863Z" stroke="white" stroke-width="0.02658" stroke-miterlimit="10"/>
<path d="M1122.85 91.6449C1122.09 91.6449 1121.53 91.0509 1121.53 90.3234C1121.53 89.5959 1122.09 89 1122.85 89C1123.54 89 1124.18 89.5939 1124.18 90.3234C1124.18 91.0489 1123.54 91.6449 1122.85 91.6449Z" fill="white"/>
<path d="M1122.85 92.6449C1122.09 92.6449 1121.53 92.0509 1121.53 91.3234C1121.53 90.5959 1122.09 90 1122.85 90C1123.54 90 1124.18 90.5939 1124.18 91.3234C1124.18 92.0489 1123.54 92.6449 1122.85 92.6449Z" stroke="white" stroke-width="0.02658" stroke-miterlimit="10"/>
<path d="M30.9076 42.0893C30.0972 42.0893 29.3586 41.4356 29.3586 40.5466C29.3586 39.6956 30.0972 39 30.9076 39C31.7959 39 32.4645 39.6956 32.4645 40.5466C32.4645 41.4356 31.7959 42.0893 30.9076 42.0893Z" fill="white"/>
<path d="M30.9076 43.0893C30.0972 43.0893 29.3586 42.4356 29.3586 41.5466C29.3586 40.6956 30.0972 40 30.9076 40C31.7959 40 32.4645 40.6956 32.4645 41.5466C32.4645 42.4356 31.7959 43.0893 30.9076 43.0893Z" stroke="white" stroke-width="0.02658" stroke-miterlimit="10"/>
<path d="M29.7203 75.4834C28.9877 75.4834 28.4568 74.9512 28.4568 74.2596C28.4568 73.566 28.9897 73 29.7203 73C30.375 73 30.908 73.566 30.908 74.2596C30.908 74.9512 30.375 75.4834 29.7203 75.4834Z" fill="white"/>
<path d="M29.7203 76.4834C28.9877 76.4834 28.4568 75.9512 28.4568 75.2596C28.4568 74.566 28.9897 74 29.7203 74C30.375 74 30.908 74.566 30.908 75.2596C30.908 75.9512 30.375 76.4834 29.7203 76.4834Z" stroke="white" stroke-width="0.02658" stroke-miterlimit="10"/>
<path d="M35.8119 67.5252C35.0793 67.5252 34.5483 66.9572 34.5483 66.2616C34.5483 65.57 35.0793 65 35.8119 65C36.4666 65 37.0774 65.57 37.0774 66.2616C37.0774 66.9592 36.4666 67.5252 35.8119 67.5252Z" fill="white"/>
<path d="M35.8119 68.5252C35.0793 68.5252 34.5483 67.9572 34.5483 67.2616C34.5483 66.57 35.0793 66 35.8119 66C36.4666 66 37.0774 66.57 37.0774 67.2616C37.0774 67.9592 36.4666 68.5252 35.8119 68.5252Z" stroke="white" stroke-width="0.02658" stroke-miterlimit="10"/>
<path d="M551.394 5.09329C550.584 5.09329 549.845 4.3957 549.845 3.54664C549.845 2.69559 550.584 2 551.394 2C552.284 2 552.945 2.69559 552.945 3.54664C552.945 4.3957 552.284 5.09329 551.394 5.09329Z" fill="white"/>
<path d="M551.394 6.09329C550.584 6.09329 549.845 5.3957 549.845 4.54664C549.845 3.69559 550.584 3 551.394 3C552.284 3 552.945 3.69559 552.945 4.54664C552.945 5.3957 552.284 6.09329 551.394 6.09329Z" stroke="white" stroke-width="0.02658" stroke-miterlimit="10"/>
<path d="M1251.13 90.1292C1251.93 90.1292 1252.67 89.4355 1252.67 88.5466C1252.67 87.6975 1251.93 87 1251.13 87C1250.23 87 1249.5 87.6955 1249.5 88.5466C1249.5 89.4355 1250.23 90.1292 1251.13 90.1292Z" fill="white"/>
<path d="M1251.13 91.1292C1251.93 91.1292 1252.67 90.4355 1252.67 89.5466C1252.67 88.6975 1251.93 88 1251.13 88C1250.23 88 1249.5 88.6955 1249.5 89.5466C1249.5 90.4355 1250.23 91.1292 1251.13 91.1292Z" stroke="white" stroke-width="0.02658" stroke-miterlimit="10"/>
<path d="M1164.74 52.1291C1165.56 52.1291 1166.3 51.4355 1166.3 50.5466C1166.3 49.6956 1165.56 49 1164.74 49C1163.86 49 1163.19 49.6956 1163.19 50.5466C1163.19 51.4355 1163.86 52.1291 1164.74 52.1291Z" fill="white"/>
<path d="M1164.74 53.1291C1165.56 53.1291 1166.3 52.4355 1166.3 51.5466C1166.3 50.6956 1165.56 50 1164.74 50C1163.86 50 1163.19 50.6956 1163.19 51.5466C1163.19 52.4355 1163.86 53.1291 1164.74 53.1291Z" stroke="white" stroke-width="0.02658" stroke-miterlimit="10"/>
<path d="M1344.25 82.0933C1345.14 82.0933 1345.8 81.3997 1345.8 80.5466C1345.8 79.6956 1345.14 79 1344.25 79C1343.44 79 1342.7 79.6956 1342.7 80.5466C1342.7 81.3977 1343.43 82.0933 1344.25 82.0933Z" fill="white"/>
<path d="M1344.25 83.0933C1345.14 83.0933 1345.8 82.3997 1345.8 81.5466C1345.8 80.6956 1345.14 80 1344.25 80C1343.44 80 1342.7 80.6956 1342.7 81.5466C1342.7 82.3977 1343.43 83.0933 1344.25 83.0933Z" stroke="white" stroke-width="0.02658" stroke-miterlimit="10"/>
<path d="M1430.55 3.09329C1431.44 3.09329 1432.09 2.3977 1432.09 1.54664C1432.09 0.697586 1431.44 0 1430.55 0C1429.66 0 1429 0.697586 1429 1.54664C1429 2.3957 1429.66 3.09329 1430.55 3.09329Z" fill="white"/>
<path d="M1430.55 4.09329C1431.44 4.09329 1432.09 3.3977 1432.09 2.54664C1432.09 1.69759 1431.44 1 1430.55 1C1429.66 1 1429 1.69759 1429 2.54664C1429 3.3957 1429.66 4.09329 1430.55 4.09329Z" stroke="white" stroke-width="0.02658" stroke-miterlimit="10"/>
<path d="M1420.5 47.5232C1421.23 47.5232 1421.76 46.9532 1421.76 46.2636C1421.76 45.566 1421.23 45 1420.5 45C1419.79 45 1419.23 45.566 1419.23 46.2636C1419.23 46.9532 1419.79 47.5232 1420.5 47.5232Z" fill="white"/>
<path d="M1420.5 48.5232C1421.23 48.5232 1421.76 47.9532 1421.76 47.2636C1421.76 46.566 1421.23 46 1420.5 46C1419.79 46 1419.23 46.566 1419.23 47.2636C1419.23 47.9532 1419.79 48.5232 1420.5 48.5232Z" stroke="white" stroke-width="0.02658" stroke-miterlimit="10"/>
<path d="M1170.5 27.4854C1171.15 27.4854 1171.68 26.9174 1171.68 26.2258C1171.68 25.5322 1171.15 25 1170.5 25C1169.76 25 1169.23 25.5322 1169.23 26.2258C1169.23 26.9174 1169.76 27.4854 1170.5 27.4854Z" fill="white"/>
<path d="M1170.5 28.4854C1171.15 28.4854 1171.68 27.9174 1171.68 27.2258C1171.68 26.5322 1171.15 26 1170.5 26C1169.76 26 1169.23 26.5322 1169.23 27.2258C1169.23 27.9174 1169.76 28.4854 1170.5 28.4854Z" stroke="white" stroke-width="0.02658" stroke-miterlimit="10"/>
<path d="M1378.66 23.4854C1379.32 23.4854 1379.92 22.9512 1379.92 22.2616C1379.92 21.568 1379.31 21 1378.66 21C1378 21 1377.4 21.568 1377.4 22.2616C1377.4 22.9512 1378 23.4854 1378.66 23.4854Z" fill="white"/>
<path d="M1378.66 24.4854C1379.32 24.4854 1379.92 23.9512 1379.92 23.2616C1379.92 22.568 1379.31 22 1378.66 22C1378 22 1377.4 22.568 1377.4 23.2616C1377.4 23.9512 1378 24.4854 1378.66 24.4854Z" stroke="white" stroke-width="0.02658" stroke-miterlimit="10"/>
<path d="M1171.69 35.4834C1172.42 35.4834 1172.95 34.9174 1172.95 34.2218C1172.95 33.5282 1172.42 33 1171.69 33C1171.03 33 1170.5 33.5282 1170.5 34.2218C1170.5 34.9174 1171.03 35.4834 1171.69 35.4834Z" fill="white"/>
<path d="M1171.69 36.4834C1172.42 36.4834 1172.95 35.9174 1172.95 35.2218C1172.95 34.5282 1172.42 34 1171.69 34C1171.03 34 1170.5 34.5282 1170.5 35.2218C1170.5 35.9174 1171.03 36.4834 1171.69 36.4834Z" stroke="white" stroke-width="0.02658" stroke-miterlimit="10"/>
<path d="M1402.31 44.0893C1403.2 44.0893 1403.94 43.4356 1403.94 42.5466C1403.94 41.6956 1403.2 41 1402.31 41C1401.5 41 1400.76 41.6956 1400.76 42.5466C1400.76 43.4356 1401.5 44.0893 1402.31 44.0893Z" fill="white"/>
<path d="M1402.31 45.0893C1403.2 45.0893 1403.94 44.4356 1403.94 43.5466C1403.94 42.6956 1403.2 42 1402.31 42C1401.5 42 1400.76 42.6956 1400.76 43.5466C1400.76 44.4356 1401.5 45.0893 1402.31 45.0893Z" stroke="white" stroke-width="0.02658" stroke-miterlimit="10"/>
<path d="M1403.59 77.4834C1404.32 77.4834 1404.85 76.9512 1404.85 76.2596C1404.85 75.566 1404.32 75 1403.59 75C1402.93 75 1402.32 75.566 1402.32 76.2596C1402.32 76.9512 1402.93 77.4834 1403.59 77.4834Z" fill="white"/>
<path d="M1403.59 78.4834C1404.32 78.4834 1404.85 77.9512 1404.85 77.2596C1404.85 76.566 1404.32 76 1403.59 76C1402.93 76 1402.32 76.566 1402.32 77.2596C1402.32 77.9512 1402.93 78.4834 1403.59 78.4834Z" stroke="white" stroke-width="0.02658" stroke-miterlimit="10"/>
<path d="M1397.49 69.5252C1398.22 69.5252 1398.76 68.9572 1398.76 68.2616C1398.76 67.57 1398.22 67 1397.49 67C1396.84 67 1396.23 67.57 1396.23 68.2616C1396.23 68.9592 1396.84 69.5252 1397.49 69.5252Z" fill="white"/>
<path d="M1397.49 70.5252C1398.22 70.5252 1398.76 69.9572 1398.76 69.2616C1398.76 68.57 1398.22 68 1397.49 68C1396.84 68 1396.23 68.57 1396.23 69.2616C1396.23 69.9592 1396.84 70.5252 1397.49 70.5252Z" stroke="white" stroke-width="0.02658" stroke-miterlimit="10"/>
</g>
</svg>
