<svg xmlns="http://www.w3.org/2000/svg" width="1431.117" height="92.658" viewBox="0 0 1431.117 92.658"><g transform="translate(-0.987)" opacity="0.5"><path d="M638.627,15.093a1.549,1.549,0,1,1,0-3.093,1.547,1.547,0,1,1,0,3.093Z" fill="#fff"/><path d="M1122.62,13.129a1.566,1.566,0,1,1,0-3.129,1.565,1.565,0,0,1,0,3.129Z" fill="#fff"/><path d="M1122.62,14.129a1.566,1.566,0,1,1,0-3.129,1.565,1.565,0,0,1,0,3.129Z" fill="none" stroke="#fff" stroke-miterlimit="10" stroke-width="0.027"/><path d="M471.714,62.093a1.547,1.547,0,1,1,1.549-1.547A1.529,1.529,0,0,1,471.714,62.093Z" fill="#fff"/><path d="M471.714,63.093a1.547,1.547,0,1,1,1.549-1.547A1.529,1.529,0,0,1,471.714,63.093Z" fill="none" stroke="#fff" stroke-miterlimit="10" stroke-width="0.027"/><path d="M1027.32,40.089a1.545,1.545,0,0,1-1.55-1.543A1.574,1.574,0,0,1,1027.32,37a1.537,1.537,0,0,1,1.56,1.547A1.511,1.511,0,0,1,1027.32,40.089Z" fill="#fff"/><path d="M1027.32,41.089a1.545,1.545,0,0,1-1.55-1.543A1.574,1.574,0,0,1,1027.32,38a1.537,1.537,0,0,1,1.56,1.547A1.511,1.511,0,0,1,1027.32,41.089Z" fill="none" stroke="#fff" stroke-miterlimit="10" stroke-width="0.027"/><path d="M1209.64,64.091a1.546,1.546,0,0,1,0-3.091,1.546,1.546,0,1,1,0,3.091Z" fill="#fff"/><path d="M1209.64,65.091a1.546,1.546,0,0,1,0-3.091,1.546,1.546,0,1,1,0,3.091Z" fill="none" stroke="#fff" stroke-miterlimit="10" stroke-width="0.027"/><path d="M480.9,7.131a1.567,1.567,0,1,1,1.631-1.587A1.607,1.607,0,0,1,480.9,7.131Z" fill="#fff"/><path d="M480.9,8.131a1.567,1.567,0,1,1,1.631-1.587A1.607,1.607,0,0,1,480.9,8.131Z" fill="none" stroke="#fff" stroke-miterlimit="10" stroke-width="0.027"/><path d="M581.613,9.093a1.547,1.547,0,1,1,0-3.093,1.547,1.547,0,0,1,0,3.093Z" fill="#fff"/><path d="M581.613,10.093a1.547,1.547,0,1,1,0-3.093,1.547,1.547,0,0,1,0,3.093Z" fill="none" stroke="#fff" stroke-miterlimit="10" stroke-width="0.027"/><path d="M182.193,88.129a1.565,1.565,0,0,1,0-3.129,1.565,1.565,0,0,1,0,3.129Z" fill="#fff"/><path d="M182.193,89.129a1.565,1.565,0,0,1,0-3.129,1.565,1.565,0,0,1,0,3.129Z" fill="none" stroke="#fff" stroke-miterlimit="10" stroke-width="0.027"/><path d="M268.551,50.129a1.565,1.565,0,0,1,0-3.129,1.565,1.565,0,0,1,0,3.129Z" fill="#fff"/><path d="M268.551,51.129a1.565,1.565,0,0,1,0-3.129,1.565,1.565,0,0,1,0,3.129Z" fill="none" stroke="#fff" stroke-miterlimit="10" stroke-width="0.027"/><path d="M89.067,80.093a1.547,1.547,0,1,1,0-3.093,1.547,1.547,0,1,1,0,3.093Z" fill="#fff"/><path d="M89.067,81.093a1.547,1.547,0,1,1,0-3.093,1.547,1.547,0,1,1,0,3.093Z" fill="none" stroke="#fff" stroke-miterlimit="10" stroke-width="0.027"/><path d="M334.065,30.093a1.547,1.547,0,1,1,0-3.093,1.547,1.547,0,1,1,0,3.093Z" fill="#fff"/><path d="M334.065,31.093a1.547,1.547,0,1,1,0-3.093,1.547,1.547,0,1,1,0,3.093Z" fill="none" stroke="#fff" stroke-miterlimit="10" stroke-width="0.027"/><path d="M2.551,11.093A1.547,1.547,0,1,1,2.551,8a1.547,1.547,0,1,1,0,3.093Z" fill="#fff"/><path d="M2.551,12.093A1.547,1.547,0,1,1,2.551,9a1.547,1.547,0,1,1,0,3.093Z" fill="none" stroke="#fff" stroke-miterlimit="10" stroke-width="0.027"/><path d="M905.655,20.091a1.546,1.546,0,1,1,1.549-1.547A1.527,1.527,0,0,1,905.655,20.091Z" fill="#fff"/><path d="M905.655,21.091a1.546,1.546,0,1,1,1.549-1.547A1.527,1.527,0,0,1,905.655,21.091Z" fill="none" stroke="#fff" stroke-miterlimit="10" stroke-width="0.027"/><path d="M695.571,32.093a1.547,1.547,0,1,1,0-3.093,1.547,1.547,0,1,1,0,3.093Z" fill="#fff"/><path d="M695.571,33.093a1.547,1.547,0,1,1,0-3.093,1.547,1.547,0,1,1,0,3.093Z" fill="none" stroke="#fff" stroke-miterlimit="10" stroke-width="0.027"/><path d="M586.344,56.093a1.549,1.549,0,1,1,0-3.093,1.547,1.547,0,1,1,0,3.093Z" fill="#fff"/><path d="M586.344,57.093a1.549,1.549,0,1,1,0-3.093,1.547,1.547,0,1,1,0,3.093Z" fill="none" stroke="#fff" stroke-miterlimit="10" stroke-width="0.027"/><path d="M514.207,28.375a.7.7,0,0,1-.716-.686.676.676,0,0,1,.716-.69.66.66,0,0,1,.659.69A.684.684,0,0,1,514.207,28.375Z" fill="#fff"/><path d="M514.207,28.375a.7.7,0,0,1-.716-.686.676.676,0,0,1,.716-.69.66.66,0,0,1,.659.69A.684.684,0,0,1,514.207,28.375Z" fill="none" stroke="#fff" stroke-miterlimit="10" stroke-width="0.027"/><path d="M12.814,45.523a1.262,1.262,0,1,1,0-2.523,1.262,1.262,0,0,1,0,2.523Z" fill="#fff"/><path d="M12.814,46.523a1.262,1.262,0,1,1,0-2.523,1.262,1.262,0,0,1,0,2.523Z" fill="none" stroke="#fff" stroke-miterlimit="10" stroke-width="0.027"/><path d="M776.6,15.483a1.228,1.228,0,0,1-1.2-1.258A1.2,1.2,0,0,1,776.6,13a1.213,1.213,0,0,1,1.251,1.226A1.238,1.238,0,0,1,776.6,15.483Z" fill="#fff"/><path d="M776.6,16.483a1.228,1.228,0,0,1-1.2-1.258A1.2,1.2,0,0,1,776.6,14a1.213,1.213,0,0,1,1.251,1.226A1.238,1.238,0,0,1,776.6,16.483Z" fill="none" stroke="#fff" stroke-miterlimit="10" stroke-width="0.027"/><path d="M548.256,37.527a1.264,1.264,0,0,1,0-2.527,1.264,1.264,0,0,1,0,2.527Z" fill="#fff"/><path d="M548.256,38.527a1.264,1.264,0,0,1,0-2.527,1.264,1.264,0,0,1,0,2.527Z" fill="none" stroke="#fff" stroke-miterlimit="10" stroke-width="0.027"/><path d="M581.615,59.511a1.256,1.256,0,1,1,0-2.511,1.256,1.256,0,1,1,0,2.511Z" fill="#fff"/><path d="M581.615,60.511a1.256,1.256,0,1,1,0-2.511,1.256,1.256,0,1,1,0,2.511Z" fill="none" stroke="#fff" stroke-miterlimit="10" stroke-width="0.027"/><path d="M262.807,25.485a1.294,1.294,0,0,1-1.263-1.26A1.263,1.263,0,0,1,262.807,23a1.214,1.214,0,0,1,1.264,1.226A1.242,1.242,0,0,1,262.807,25.485Z" fill="#fff"/><path d="M262.807,26.485a1.294,1.294,0,0,1-1.263-1.26A1.263,1.263,0,0,1,262.807,24a1.214,1.214,0,0,1,1.264,1.226A1.242,1.242,0,0,1,262.807,26.485Z" fill="none" stroke="#fff" stroke-miterlimit="10" stroke-width="0.027"/><path d="M385.341,83.487a1.288,1.288,0,0,1-1.259-1.254A1.269,1.269,0,0,1,385.341,81a1.221,1.221,0,0,1,1.264,1.234A1.241,1.241,0,0,1,385.341,83.487Z" fill="#fff"/><path d="M385.341,84.487a1.288,1.288,0,0,1-1.259-1.254A1.269,1.269,0,0,1,385.341,82a1.221,1.221,0,0,1,1.264,1.234A1.241,1.241,0,0,1,385.341,84.487Z" fill="none" stroke="#fff" stroke-miterlimit="10" stroke-width="0.027"/><path d="M54.649,21.485a1.215,1.215,0,0,1-1.266-1.224A1.243,1.243,0,0,1,54.649,19a1.293,1.293,0,0,1,1.264,1.262A1.263,1.263,0,0,1,54.649,21.485Z" fill="#fff"/><path d="M54.649,22.485a1.215,1.215,0,0,1-1.266-1.224A1.243,1.243,0,0,1,54.649,20a1.293,1.293,0,0,1,1.264,1.262A1.263,1.263,0,0,1,54.649,22.485Z" fill="none" stroke="#fff" stroke-miterlimit="10" stroke-width="0.027"/><path d="M261.542,33.483a1.292,1.292,0,0,1-1.265-1.262A1.26,1.26,0,0,1,261.542,31a1.209,1.209,0,0,1,1.264,1.222A1.241,1.241,0,0,1,261.542,33.483Z" fill="#fff"/><path d="M261.542,34.483a1.292,1.292,0,0,1-1.265-1.262A1.26,1.26,0,0,1,261.542,32a1.209,1.209,0,0,1,1.264,1.222A1.241,1.241,0,0,1,261.542,34.483Z" fill="none" stroke="#fff" stroke-miterlimit="10" stroke-width="0.027"/><path d="M1151.88,85.521a1.261,1.261,0,0,1,0-2.521,1.261,1.261,0,1,1,0,2.521Z" fill="#fff"/><path d="M1151.88,86.521a1.261,1.261,0,0,1,0-2.521,1.261,1.261,0,1,1,0,2.521Z" fill="none" stroke="#fff" stroke-miterlimit="10" stroke-width="0.027"/><path d="M846.72,53.5a1.273,1.273,0,0,1-1.263-1.24A1.3,1.3,0,0,1,846.72,51a1.242,1.242,0,0,1,1.264,1.264A1.224,1.224,0,0,1,846.72,53.5Z" fill="#fff"/><path d="M846.72,54.5a1.273,1.273,0,0,1-1.263-1.24A1.3,1.3,0,0,1,846.72,52a1.242,1.242,0,0,1,1.264,1.264A1.224,1.224,0,0,1,846.72,54.5Z" fill="none" stroke="#fff" stroke-miterlimit="10" stroke-width="0.027"/><path d="M677.226,85.515a1.258,1.258,0,1,1,0-2.515,1.26,1.26,0,0,1,0,2.515Z" fill="#fff"/><path d="M677.226,86.515a1.258,1.258,0,1,1,0-2.515,1.26,1.26,0,0,1,0,2.515Z" fill="none" stroke="#fff" stroke-miterlimit="10" stroke-width="0.027"/><path d="M830.174,71.523a1.262,1.262,0,1,1,0-2.523,1.264,1.264,0,0,1,0,2.523Z" fill="#fff"/><path d="M830.174,72.523a1.262,1.262,0,1,1,0-2.523,1.264,1.264,0,0,1,0,2.523Z" fill="none" stroke="#fff" stroke-miterlimit="10" stroke-width="0.027"/><path d="M936.462,17.483a1.294,1.294,0,0,1-1.265-1.258A1.268,1.268,0,0,1,936.462,15a1.214,1.214,0,0,1,1.262,1.226A1.239,1.239,0,0,1,936.462,17.483Z" fill="#fff"/><path d="M936.462,18.483a1.294,1.294,0,0,1-1.265-1.258A1.268,1.268,0,0,1,936.462,16a1.214,1.214,0,0,1,1.262,1.226A1.239,1.239,0,0,1,936.462,18.483Z" fill="none" stroke="#fff" stroke-miterlimit="10" stroke-width="0.027"/><path d="M703.909,57.483a1.259,1.259,0,0,1-1.263-1.224A1.293,1.293,0,0,1,703.909,55a1.245,1.245,0,0,1,1.266,1.26A1.214,1.214,0,0,1,703.909,57.483Z" fill="#fff"/><path d="M703.909,58.483a1.259,1.259,0,0,1-1.263-1.224A1.293,1.293,0,0,1,703.909,56a1.245,1.245,0,0,1,1.266,1.26A1.214,1.214,0,0,1,703.909,58.483Z" fill="none" stroke="#fff" stroke-miterlimit="10" stroke-width="0.027"/><path d="M1174.15,73.483a1.262,1.262,0,0,1-1.26-1.224,1.292,1.292,0,0,1,1.26-1.26,1.242,1.242,0,0,1,1.27,1.26A1.214,1.214,0,0,1,1174.15,73.483Z" fill="#fff"/><path d="M1174.15,74.483a1.262,1.262,0,0,1-1.26-1.224,1.292,1.292,0,0,1,1.26-1.26,1.242,1.242,0,0,1,1.27,1.26A1.214,1.214,0,0,1,1174.15,74.483Z" fill="none" stroke="#fff" stroke-miterlimit="10" stroke-width="0.027"/><path d="M1180.24,65.525a1.263,1.263,0,1,1,1.26-1.264A1.235,1.235,0,0,1,1180.24,65.525Z" fill="#fff"/><path d="M1180.24,66.525a1.263,1.263,0,1,1,1.26-1.264A1.235,1.235,0,0,1,1180.24,66.525Z" fill="none" stroke="#fff" stroke-miterlimit="10" stroke-width="0.027"/><path d="M1127.3,86.086a.576.576,0,0,1-.61-.564.569.569,0,0,1,.61-.522.525.525,0,0,1,.52.522A.537.537,0,0,1,1127.3,86.086Z" fill="#fff"/><path d="M1127.3,85.086a.576.576,0,0,1-.61-.564.569.569,0,0,1,.61-.522.525.525,0,0,1,.52.522A.537.537,0,0,1,1127.3,85.086Z" fill="none" stroke="#fff" stroke-miterlimit="10" stroke-width="0.027"/><path d="M1122.85,91.645a1.322,1.322,0,0,1,0-2.645,1.322,1.322,0,1,1,0,2.645Z" fill="#fff"/><path d="M1122.85,92.645a1.322,1.322,0,0,1,0-2.645,1.322,1.322,0,1,1,0,2.645Z" fill="none" stroke="#fff" stroke-miterlimit="10" stroke-width="0.027"/><path d="M30.908,42.089a1.551,1.551,0,0,1-1.549-1.543A1.58,1.58,0,0,1,30.908,39a1.536,1.536,0,0,1,1.557,1.547A1.51,1.51,0,0,1,30.908,42.089Z" fill="#fff"/><path d="M30.908,43.089a1.551,1.551,0,0,1-1.549-1.543A1.58,1.58,0,0,1,30.908,40a1.536,1.536,0,0,1,1.557,1.547A1.51,1.51,0,0,1,30.908,43.089Z" fill="none" stroke="#fff" stroke-miterlimit="10" stroke-width="0.027"/><path d="M29.72,75.483a1.213,1.213,0,0,1-1.264-1.224A1.242,1.242,0,0,1,29.72,73a1.227,1.227,0,0,1,1.188,1.26A1.2,1.2,0,0,1,29.72,75.483Z" fill="#fff"/><path d="M29.72,76.483a1.213,1.213,0,0,1-1.264-1.224A1.242,1.242,0,0,1,29.72,74a1.227,1.227,0,0,1,1.188,1.26A1.2,1.2,0,0,1,29.72,76.483Z" fill="none" stroke="#fff" stroke-miterlimit="10" stroke-width="0.027"/><path d="M35.812,67.525a1.263,1.263,0,1,1,0-2.525,1.263,1.263,0,1,1,0,2.525Z" fill="#fff"/><path d="M35.812,68.525a1.263,1.263,0,1,1,0-2.525,1.263,1.263,0,1,1,0,2.525Z" fill="none" stroke="#fff" stroke-miterlimit="10" stroke-width="0.027"/><path d="M551.394,5.093a1.581,1.581,0,0,1-1.549-1.547A1.58,1.58,0,0,1,551.394,2a1.547,1.547,0,1,1,0,3.093Z" fill="#fff"/><path d="M551.394,6.093a1.581,1.581,0,0,1-1.549-1.547A1.58,1.58,0,0,1,551.394,3a1.547,1.547,0,1,1,0,3.093Z" fill="none" stroke="#fff" stroke-miterlimit="10" stroke-width="0.027"/><path d="M1251.13,90.129a1.566,1.566,0,1,0-1.63-1.583A1.585,1.585,0,0,0,1251.13,90.129Z" fill="#fff"/><path d="M1251.13,91.129a1.566,1.566,0,1,0-1.63-1.583A1.585,1.585,0,0,0,1251.13,91.129Z" fill="none" stroke="#fff" stroke-miterlimit="10" stroke-width="0.027"/><path d="M1164.74,52.129a1.565,1.565,0,0,0,0-3.129,1.565,1.565,0,0,0,0,3.129Z" fill="#fff"/><path d="M1164.74,53.129a1.565,1.565,0,0,0,0-3.129,1.565,1.565,0,0,0,0,3.129Z" fill="none" stroke="#fff" stroke-miterlimit="10" stroke-width="0.027"/><path d="M1344.25,82.093a1.547,1.547,0,1,0,0-3.093,1.547,1.547,0,1,0,0,3.093Z" fill="#fff"/><path d="M1344.25,83.093a1.547,1.547,0,1,0,0-3.093,1.547,1.547,0,1,0,0,3.093Z" fill="none" stroke="#fff" stroke-miterlimit="10" stroke-width="0.027"/><path d="M1430.55,3.093a1.521,1.521,0,0,0,1.54-1.547,1.545,1.545,0,1,0-3.09,0A1.53,1.53,0,0,0,1430.55,3.093Z" fill="#fff"/><path d="M1430.55,4.093a1.521,1.521,0,0,0,1.54-1.547,1.545,1.545,0,1,0-3.09,0A1.53,1.53,0,0,0,1430.55,4.093Z" fill="none" stroke="#fff" stroke-miterlimit="10" stroke-width="0.027"/><path d="M1420.5,47.523a1.262,1.262,0,0,0,0-2.523,1.262,1.262,0,1,0,0,2.523Z" fill="#fff"/><path d="M1420.5,48.523a1.262,1.262,0,0,0,0-2.523,1.262,1.262,0,1,0,0,2.523Z" fill="none" stroke="#fff" stroke-miterlimit="10" stroke-width="0.027"/><path d="M1170.5,27.485a1.225,1.225,0,0,0,1.18-1.26A1.194,1.194,0,0,0,1170.5,25a1.215,1.215,0,0,0-1.27,1.226A1.243,1.243,0,0,0,1170.5,27.485Z" fill="#fff"/><path d="M1170.5,28.485a1.225,1.225,0,0,0,1.18-1.26A1.194,1.194,0,0,0,1170.5,26a1.215,1.215,0,0,0-1.27,1.226A1.243,1.243,0,0,0,1170.5,28.485Z" fill="none" stroke="#fff" stroke-miterlimit="10" stroke-width="0.027"/><path d="M1378.66,23.485a1.256,1.256,0,0,0,1.26-1.224,1.26,1.26,0,1,0-2.52,0A1.256,1.256,0,0,0,1378.66,23.485Z" fill="#fff"/><path d="M1378.66,24.485a1.256,1.256,0,0,0,1.26-1.224,1.26,1.26,0,1,0-2.52,0A1.256,1.256,0,0,0,1378.66,24.485Z" fill="none" stroke="#fff" stroke-miterlimit="10" stroke-width="0.027"/><path d="M1171.69,35.483a1.24,1.24,0,0,0,1.26-1.262A1.209,1.209,0,0,0,1171.69,33a1.193,1.193,0,0,0-1.19,1.222A1.226,1.226,0,0,0,1171.69,35.483Z" fill="#fff"/><path d="M1171.69,36.483a1.24,1.24,0,0,0,1.26-1.262A1.209,1.209,0,0,0,1171.69,34a1.193,1.193,0,0,0-1.19,1.222A1.226,1.226,0,0,0,1171.69,36.483Z" fill="none" stroke="#fff" stroke-miterlimit="10" stroke-width="0.027"/><path d="M1402.31,44.089a1.571,1.571,0,0,0,1.63-1.543A1.6,1.6,0,0,0,1402.31,41a1.581,1.581,0,0,0-1.55,1.547A1.552,1.552,0,0,0,1402.31,44.089Z" fill="#fff"/><path d="M1402.31,45.089a1.571,1.571,0,0,0,1.63-1.543A1.6,1.6,0,0,0,1402.31,42a1.581,1.581,0,0,0-1.55,1.547A1.552,1.552,0,0,0,1402.31,45.089Z" fill="none" stroke="#fff" stroke-miterlimit="10" stroke-width="0.027"/><path d="M1403.59,77.483a1.212,1.212,0,0,0,1.26-1.224,1.24,1.24,0,0,0-1.26-1.26,1.294,1.294,0,0,0-1.27,1.26A1.264,1.264,0,0,0,1403.59,77.483Z" fill="#fff"/><path d="M1403.59,78.483a1.212,1.212,0,0,0,1.26-1.224,1.24,1.24,0,0,0-1.26-1.26,1.294,1.294,0,0,0-1.27,1.26A1.264,1.264,0,0,0,1403.59,78.483Z" fill="none" stroke="#fff" stroke-miterlimit="10" stroke-width="0.027"/><path d="M1397.49,69.525a1.263,1.263,0,1,0,0-2.525,1.263,1.263,0,0,0,0,2.525Z" fill="#fff"/><path d="M1397.49,70.525a1.263,1.263,0,1,0,0-2.525,1.263,1.263,0,0,0,0,2.525Z" fill="none" stroke="#fff" stroke-miterlimit="10" stroke-width="0.027"/></g></svg>