<svg xmlns="http://www.w3.org/2000/svg" width="1443" height="210.9" viewBox="0 0 1443 210.9"><g transform="translate(2 0.016)"><path d="M1440,209.5h.5v-5.566H1195.41V44.587H990.086V203.934H514.5V209.5H995.652V50.153H1189.84V209.5H1440Z" fill="#ebebeb" stroke="#ebebeb" stroke-width="1"/><path d="M1091.81,49.22l.07.019h.75a4.547,4.547,0,0,0,1.63-.356c.12-.043.24-.086.36-.126l.11-.037.08-.083a3.038,3.038,0,0,0,.81-1.262,2.689,2.689,0,0,0,.01-1.49c-5.27-23.353-14.46-37.461-29.05-43.945h0l-.01,0c-5.64-2.352-12.71-1.193-16.75,2.847a12.008,12.008,0,0,0-3.25,5.835c-.62,2.746-.43,6.28,1.54,10.7,1.71,3.995,5.22,7.7,9.5,11a88.806,88.806,0,0,0,14.31,8.712A150.119,150.119,0,0,0,1091.81,49.22ZM1053.72,8.457a9.611,9.611,0,0,1,6.49-2.365,10.611,10.611,0,0,1,3.92.646,33.6,33.6,0,0,1,12.88,9.815c4.34,5.306,8.55,13.246,11.71,25.457a137.513,137.513,0,0,1-20.07-9.285,64.565,64.565,0,0,1-9.68-6.673,21.273,21.273,0,0,1-5.83-7.188C1051.12,14.155,1051.42,10.758,1053.72,8.457Z" fill="#ebebeb" stroke="#ebebeb" stroke-width="1"/><path d="M1119.6,1.71h0c-14.82,6.484-24.01,20.593-29.05,43.949a2.562,2.562,0,0,0,.85,2.784,2.98,2.98,0,0,0,1.92.8h0a2.307,2.307,0,0,0,.47-.038,2.62,2.62,0,0,0,.63-.227,161.377,161.377,0,0,0,19.67-8.178,90.981,90.981,0,0,0,14.35-8.711c4.3-3.3,7.86-7,9.62-10.995,1.98-4.421,2.17-7.955,1.55-10.7a12.007,12.007,0,0,0-3.25-5.835C1132.32.515,1125.02-.648,1119.6,1.71Zm2.23,5.254.01,0,.01-.005a9.358,9.358,0,0,1,10.36,1.708l.01.013.01.012c2.3,2.3,2.6,5.7.58,10.4a22.464,22.464,0,0,1-6.34,7.571,68.488,68.488,0,0,1-10.2,6.8,151.145,151.145,0,0,1-19.04,8.76c3.16-12.2,7.37-20.139,11.71-25.443A33.589,33.589,0,0,1,1121.83,6.963Z" fill="#ebebeb" stroke="#ebebeb" stroke-width="1"/><path d="M1090.54,47.24l.02.066.03.06a3.225,3.225,0,0,0,2.73,1.875.992.992,0,0,1,.22.014.218.218,0,0,1,.11.068l.35.354.29-.284q.075-.029.24-.079c.23-.072.57-.171,1-.3.86-.249,2.1-.594,3.63-1.007,3.06-.827,7.26-1.924,11.91-3.065,9.31-2.283,20.35-4.73,27.5-5.525h.01c2.32-.308,5.03-.406,7.91-.509,1.36-.049,2.75-.1,4.15-.172l.35-.011c6.97-.225,14.46-.466,21.2-1.68,6.86-1.233,13.03-3.483,17.14-7.82a2.761,2.761,0,0,0-3.91-3.9h0v.006c-3.31,3.419-8.66,5.281-14.91,6.332a154.02,154.02,0,0,1-19.57,1.494l-.34.012h-.01c-1.41.071-2.82.12-4.19.167-3.01.1-5.87.2-8.39.52-7.35.69-18.45,3.094-27.83,5.376-4.7,1.142-8.98,2.257-12.15,3.113-1.59.429-2.9.793-3.86,1.065-.86.247-1.46.426-1.68.506a2.475,2.475,0,0,0-1.61,1.266A3.05,3.05,0,0,0,1090.54,47.24Z" fill="#ebebeb" stroke="#ebebeb" stroke-width="1"/><path d="M1049.99,40.531h0a131.264,131.264,0,0,0,38.13,7.791v0h.17a2.605,2.605,0,0,0,2.56-2.783,2.79,2.79,0,0,0-2.78-2.783H1088l-.17-.005c-.15,0-.37-.013-.65-.026-.55-.026-1.36-.07-2.38-.145-2.03-.149-4.91-.419-8.34-.9a115.164,115.164,0,0,1-24.74-6.192c-19.27-7.569-31.45-6.43-35.4-5.966l-.02,0-.02,0a3.348,3.348,0,0,0-1.81,1.074,2.357,2.357,0,0,0-.63,2.025,3.44,3.44,0,0,0,.97,1.808,2.443,2.443,0,0,0,2.1.643C1020.74,34.63,1031.84,33.5,1049.99,40.531Z" fill="#ebebeb" stroke="#ebebeb" stroke-width="1"/><path d="M1193.12,82.983v-.5H992.369v5.566H1193.12V82.983Z" fill="#ebebeb" stroke="#ebebeb" stroke-width="1"/><path d="M512,209h1V120.5H402.077V205.45H-1v4.434H406.512V124.937H508.566V209H512Z" fill="#ebebeb" stroke="#ebebeb" stroke-width="2"/><path d="M456.838,124.411l.135.039h.505a3.312,3.312,0,0,0,1.158-.248l.132-.047.224-.075.167-.167a2.361,2.361,0,0,0,.613-.975,2.18,2.18,0,0,0,.018-1.179c-2.831-12.548-7.82-20.337-15.9-23.928l-.01,0-.011,0a9.2,9.2,0,0,0-9.733,1.676,7.133,7.133,0,0,0-1.926,3.466,9.671,9.671,0,0,0,.865,6.16,16.533,16.533,0,0,0,5.288,6.15,48.109,48.109,0,0,0,7.747,4.719A80.756,80.756,0,0,0,456.838,124.411Zm-19.586-21.917a4.406,4.406,0,0,1,2.944-1.046,4.925,4.925,0,0,1,1.8.288,17.164,17.164,0,0,1,6.581,5.02c2.069,2.528,4.112,6.258,5.725,11.908a71.147,71.147,0,0,1-9.244-4.386,33.509,33.509,0,0,1-5.048-3.478,10.646,10.646,0,0,1-2.915-3.567C436.077,104.848,436.334,103.412,437.252,102.494Z" fill="#ebebeb" stroke="#ebebeb" stroke-width="2"/><path d="M471.562,97.706h0c-8.208,3.59-13.2,11.382-15.909,23.936a2.108,2.108,0,0,0,.7,2.216,2.312,2.312,0,0,0,1.488.591h.009a1.9,1.9,0,0,0,.385-.035,2.091,2.091,0,0,0,.469-.158,87,87,0,0,0,10.537-4.385,49.035,49.035,0,0,0,7.768-4.718,16.916,16.916,0,0,0,5.356-6.145,9.674,9.674,0,0,0,.867-6.167,7.12,7.12,0,0,0-1.926-3.466A9.237,9.237,0,0,0,471.562,97.706Zm1.776,4.144.022-.01.021-.01a4.261,4.261,0,0,1,4.642.737l.022.025.024.024c.917.917,1.175,2.351.156,4.733a11.331,11.331,0,0,1-3.179,3.767,35.682,35.682,0,0,1-5.323,3.55,77.328,77.328,0,0,1-8.7,4.1c1.611-5.637,3.652-9.36,5.718-11.884A17.159,17.159,0,0,1,473.338,101.85Z" fill="#ebebeb" stroke="#ebebeb" stroke-width="2"/><path d="M455.645,122.794l.027.131.06.12a2.5,2.5,0,0,0,1.932,1.4l.544.544.544-.544q.171-.053.473-.14c.456-.131,1.113-.314,1.925-.533,1.625-.44,3.861-1.023,6.333-1.63a133.631,133.631,0,0,1,14.567-2.928l.011,0h.011c1.2-.16,2.586-.209,4.1-.263.728-.026,1.484-.053,2.261-.094l.2-.007a80.639,80.639,0,0,0,11.385-.906c3.7-.666,7.182-1.9,9.532-4.38a2.2,2.2,0,0,0-3.129-3.107l-.006.006-.006.006c-1.594,1.647-4.245,2.608-7.54,3.162a81.662,81.662,0,0,1-10.36.788l-.157,0h-.016c-.726.036-1.457.062-2.18.087-1.619.056-3.2.111-4.572.282a121.826,121.826,0,0,0-14.93,2.883c-2.511.611-4.8,1.206-6.495,1.664-.849.229-1.552.425-2.064.571-.392.112-.72.208-.9.269a2.067,2.067,0,0,0-1.3,1.025A2.369,2.369,0,0,0,455.645,122.794Z" fill="#ebebeb" stroke="#ebebeb" stroke-width="2"/><path d="M434.48,119.758h0l.008,0a70.67,70.67,0,0,0,20.586,4.2h.092a2.121,2.121,0,0,0,2.1-2.217,2.22,2.22,0,0,0-2.217-2.217h0c-.05,0-.654-.017-1.682-.092-1.071-.079-2.589-.221-4.4-.476a60.648,60.648,0,0,1-13.028-3.258c-10.407-4.088-17.029-3.484-19.221-3.226l-.04.005-.039.008a2.526,2.526,0,0,0-1.378.809,2,2,0,0,0-.5,1.706,2.558,2.558,0,0,0,.739,1.357,2.029,2.029,0,0,0,1.717.533C419.179,116.664,424.964,116.07,434.48,119.758Z" fill="#ebebeb" stroke="#ebebeb" stroke-width="2"/><path d="M511.783,141.705v-1H403.294v4.434H511.783v-3.434Z" fill="#ebebeb" stroke="#ebebeb" stroke-width="2"/></g></svg>