<svg width="188" height="33" viewBox="0 0 188 33" fill="none" xmlns="http://www.w3.org/2000/svg">
<path d="M41.4437 25.0212L45.7042 20.7606V32.8451C39.1197 32.2254 33.3873 28.7395 33.3873 19.986V18.5142H43.6901L39.3521 22.8522L41.4437 25.0212Z" fill="#EA1B36"/>
<path d="M41.4437 12.7042C40.1268 11.3873 39.9719 9.76058 40.5916 9.14086C40.824 8.90847 41.2113 8.75354 41.6761 8.75354C42.4507 8.75354 43.3803 9.14086 44.2324 9.91551C44.9296 10.6127 45.3944 12.4719 45.7817 14.331V14.5634C44 14.0986 42.2183 13.4789 41.4437 12.7042Z" fill="#EA1B36"/>
<path d="M38.4225 6.97191C36.4859 8.90853 36.7958 12.3944 39.1972 14.7959H33.3873V0.697266H45.7042V7.20431C43.3803 5.26769 40.2817 5.11276 38.4225 6.97191Z" fill="#EA1B36"/>
<path d="M0 32.2254V0.697266H10.3803V11.8522H13.0141L19.2887 0.697266H30.7535L21.2254 16.3452L30.9859 32.2254H19.5211L12.7817 20.993H10.3803V32.2254H0Z" fill="#005099"/>
<path d="M80.0211 0.697266C88.0774 0.697266 94.1971 3.486 94.1971 12.3945C94.1971 21.2254 88.0774 24.0142 80.0211 24.0142H76.6126V32.2254H66.2323V0.697266H80.0211ZM79.9436 9.29586H76.6901V15.493H79.9436C82.345 15.493 83.8943 14.5635 83.8943 12.3945C83.8168 10.148 82.2675 9.29586 79.9436 9.29586Z" fill="#FFA300"/>
<path d="M113.873 0C125.26 0 130.993 7.43662 130.993 16.5C130.993 25.5634 125.26 33 113.873 33C102.486 33 96.7534 25.5634 96.7534 16.5C96.7534 7.43662 102.563 0 113.873 0ZM113.873 9.37324C109.845 9.37324 107.444 12.0845 107.444 16.4225C107.444 20.7606 109.767 23.4718 113.873 23.4718C117.979 23.4718 120.303 20.7606 120.303 16.4225C120.303 12.0845 117.979 9.37324 113.873 9.37324Z" fill="#005099"/>
<path d="M145.943 0C150.049 0 154.387 0.929577 157.563 2.6338V11.6197C154.465 9.6831 150.591 8.52113 147.105 8.59859C145.014 8.59859 144.317 9.14084 144.317 9.99296C144.317 13.2465 159.655 11.7746 159.655 22.7746C159.655 30.831 153.69 33 146.408 33C141.605 33 137.345 31.993 133.859 30.0563V20.6056C137.81 23.162 141.993 24.3239 145.324 24.3239C148.035 24.3239 148.887 23.8592 148.887 22.7746C148.887 19.5211 133.549 20.7606 133.549 9.76056C133.549 3.09859 139.127 0 145.943 0Z" fill="#EA1B36"/>
<path d="M186.922 0.697266V8.90854H173.443V12.5494H185.296V20.2184H173.443V23.9367H187.155V32.2254H162.986V0.697266H186.922Z" fill="#FFA300"/>
<path d="M53.6829 25.0212L49.4223 20.7606V32.8451C56.0068 32.2254 61.7392 28.7395 61.7392 19.986V18.5142H51.5139L55.8519 22.8522L53.6829 25.0212Z" fill="#EA1B36"/>
<path d="M53.6831 12.7042C55 11.3873 55.1549 9.76058 54.5352 9.14086C54.3028 8.90847 53.9155 8.75354 53.4507 8.75354C52.6761 8.75354 51.7465 9.14086 50.8944 9.91551C50.1972 10.6127 49.7324 12.4719 49.3451 14.331V14.5634C51.1268 14.0986 52.9859 13.4789 53.6831 12.7042Z" fill="#EA1B36"/>
<path d="M56.704 6.97191C58.6406 8.90853 58.3308 12.3944 55.9294 14.7959H61.7392V0.697266H49.4223V7.20431C51.8237 5.26769 54.9223 5.11276 56.704 6.97191Z" fill="#EA1B36"/>
</svg>